<svg width="40" height="40" viewBox="0 0 40 40" fill="none" xmlns="http://www.w3.org/2000/svg">
<rect width="40" height="40" rx="20" fill="white"/>
<path d="M28.3334 23.4917C28.3334 26.5251 26.525 28.3334 23.4917 28.3334H22.5C22.0417 28.3334 21.6667 27.9584 21.6667 27.5001V22.6918C21.6667 22.4668 21.85 22.2751 22.075 22.2751L23.5417 22.2501C23.6584 22.2418 23.7584 22.1584 23.7834 22.0418L24.075 20.4501C24.1 20.3001 23.9834 20.1584 23.825 20.1584L22.05 20.1834C21.8167 20.1834 21.6334 20.0001 21.625 19.7751L21.5917 17.7334C21.5917 17.6001 21.7 17.4834 21.8417 17.4834L23.8417 17.4501C23.9833 17.4501 24.0917 17.3418 24.0917 17.2001L24.0583 15.2001C24.0583 15.0584 23.95 14.9501 23.8084 14.9501L21.5583 14.9834C20.175 15.0084 19.075 16.1417 19.1 17.5251L19.1417 19.8167C19.15 20.0501 18.9667 20.2334 18.7334 20.2418L17.7334 20.2584C17.5917 20.2584 17.4834 20.3667 17.4834 20.5084L17.5084 22.0918C17.5084 22.2334 17.6167 22.3417 17.7584 22.3417L18.7584 22.3251C18.9917 22.3251 19.175 22.5084 19.1833 22.7334L19.2583 27.4834C19.2667 27.9501 18.8917 28.3334 18.425 28.3334H16.5084C13.475 28.3334 11.6667 26.5251 11.6667 23.4834V16.5084C11.6667 13.4751 13.475 11.6667 16.5084 11.6667H23.4917C26.525 11.6667 28.3334 13.4751 28.3334 16.5084V23.4917Z" fill="#101727"/>
</svg>
